HIERARCHY
ROOT Hips
{
	OFFSET	0.00	0.00	0.00
	CHANNELS 6 Xposition Yposition Zposition Zrotation Xrotation Yrotation
	JOINT Spine
	{
		OFFSET	 0.00	0.01	 0.00
		CHANNELS 3 Zrotation Xrotation Yrotation
		JOINT Spine1
		{
			OFFSET	 0.00	 2.45913012437421	 0.00
			CHANNELS 3 Zrotation Xrotation Yrotation
            JOINT Neck
            {
                OFFSET	 0.00	 2.48462964506057	 0.00
                CHANNELS 3 Zrotation Xrotation Yrotation
                JOINT Head
                {
                    OFFSET	 0.00	 0.927524780924562	 0.00
                    CHANNELS 3 Zrotation Xrotation Yrotation
                    End Site 
                    {
                        OFFSET	 0.00	 1.14999962169752	 0.00
                    }
                }
            }
			JOINT LeftShoulder
			{
				OFFSET	 0.00	 2.48462964506057	 0.00
				CHANNELS 3 Zrotation Xrotation Yrotation
				JOINT LeftUpArm
				{
					OFFSET	 0.00	 1.24881979654096	 0.00
					CHANNELS 3 Zrotation Xrotation Yrotation
					JOINT LeftForeArm
					{
						OFFSET	 0.00	2.59758046908119	 0.00
						CHANNELS 3 Zrotation Xrotation Yrotation
						JOINT LeftHand
						{
							OFFSET	 0.00	2.45542024364365	 0.00
							CHANNELS 3 Zrotation Xrotation Yrotation
							JOINT LeftHandThumb 
							{
								OFFSET	 0.00	0.00	 0.00
								CHANNELS 3 Zrotation Xrotation Yrotation
								End Site
								{
									OFFSET	 0.00	0.00	1.00000003353624
								}
							}
							JOINT L_Wrist_End 
							{
								OFFSET	 0.00	0.99999967115358	 0.00
								CHANNELS 3 Zrotation Xrotation Yrotation
								End Site 
								{
									OFFSET	 0.00	 0.00	 0.00
								}
							}
						}
					}
				}
			}
			JOINT RightShoulder
			{
				OFFSET	 0.00	 2.48462964506057	 0.00
				CHANNELS 3 Zrotation Xrotation Yrotation
				JOINT RightUpArm
				{
					OFFSET	 0.00	 1.24881979654096	 0.00
					CHANNELS 3 Zrotation Xrotation Yrotation
					JOINT RightForeArm
					{
						OFFSET	 0.00	2.59758046908119	 0.00
						CHANNELS 3 Zrotation Xrotation Yrotation
						JOINT RightHand
						{
							OFFSET	 0.00	2.45542024364365	 0.00
							CHANNELS 3 Zrotation Xrotation Yrotation
							JOINT RightHandThumb 
							{
								OFFSET	 0.00	0.00	 0.00
								CHANNELS 3 Zrotation Xrotation Yrotation
								End Site
								{
									OFFSET	 0.00	0.00	1.00000003353624
								}
							}
							JOINT R_Wrist_End 
							{
								OFFSET	 0.00	0.99999967115358	 0.00
								CHANNELS 3 Zrotation Xrotation Yrotation
								End Site 
								{
									OFFSET	 0.00	 0.00	 0.00
								}
							}
						}
					}
				}
			}
		}
	}
	JOINT LeftUpLeg
	{
		OFFSET	 1.2719394002717	 0.00	 0.00
		CHANNELS 3 Zrotation Xrotation Yrotation
		JOINT LeftLowLeg
		{
			OFFSET	 0.00	-4.3429100912261	 0.00
			CHANNELS 3 Zrotation Xrotation Yrotation
			JOINT LeftFoot
			{
				OFFSET	 0.00	-4.48767017425826	 0.00
				CHANNELS 3 Zrotation Xrotation Yrotation
				JOINT LeftToeBase
                {
                    OFFSET	 0.00	0.00	 1.51507020887566
                    CHANNELS 3 Zrotation Xrotation Yrotation
                    End Site 
                    {
                        OFFSET	 0.00	0.00	 0.75000010571191
                    }
                }
			}
		}
	}
	JOINT RightUpLeg
	{
		OFFSET	 -1.2719393604653	 0.00	 0.00
		CHANNELS 3 Zrotation Xrotation Yrotation
		JOINT RightLowLeg
		{
			OFFSET	 0.00	-4.3429100912261	 0.00
			CHANNELS 3 Zrotation Xrotation Yrotation
			JOINT RightFoot
			{
				OFFSET	 0.00	-4.48767017425826	 0.00
				CHANNELS 3 Zrotation Xrotation Yrotation
				JOINT RightToeBase
                {
                    OFFSET	 0.00	0.00	 1.51507020887566
                    CHANNELS 3 Zrotation Xrotation Yrotation
                    End Site 
                    {
                        OFFSET	 0.00	0.00	 0.749999965609858
                    }
                }   
			}
		}
	}
}
MOTION 
Frames:	13 
Frame Time: 0.02 
  -2.9055099487304688 8.201240234375 10.226199951171875 -81.5447 82.0137 79.1654 7.39908 -17.5121 -2.32794 4.39278 9.04913 -0.670258 -3.50549 60.6642 11.4855 30.0122 -79.87 22.6996 -107.8177 -9.82512 -9.2248 6.74231 -8.03648 15.8931 0.0 125.632 0.0 8.01451 -6.16841 27.1384 0.0 0.0 0.0 0.0 0.0 0.0 106.6901 -12.4947 2.80024 -9.41383 3.97297 0.581131 0.0 132.957 0.0 33.8923 -21.8615 -7.23997 0.0 0.0 0.0 0.0 0.0 0.0 -5.00339 -5.87537 19.4964 0.0 17.9201 0.0 9.45105 6.707 4.80009 0.0 -14.932459 0.0 20.0704 6.34149 18.8912 0.0 7.52947 0.0 13.6297 9.14532 -23.0349 0.0 -13.82689 0.0 
  -2.9323300170898436 8.177890014648437 10.229199829101562 -82.6691 82.2714 79.6484 7.32616 -17.4932 -1.9484 3.96569 8.89999 -0.238686 -3.75907 60.5033 11.7406 29.6661 -79.9441 22.2099 -107.8023 -9.90343 -9.30287 6.29441 -8.146 16.0608 0.0 125.43 0.0 7.96917 -6.11781 27.4934 0.0 0.0 0.0 0.0 0.0 0.0 106.492905 -12.5209 2.75865 -9.28171 3.95176 0.257265 0.0 133.034 0.0 33.0663 -21.3575 -7.59599 0.0 0.0 0.0 0.0 0.0 0.0 -5.04501 -6.10579 19.2682 0.0 18.2584 0.0 8.85928 6.7249002 5.28964 0.0 -14.592524 0.0 19.92 6.41573 19.05 0.0 7.48567 0.0 13.2859 9.38902 -22.7579 0.0 -13.19149 0.0 
  -2.9577899169921875 8.153309936523437 10.231900024414063 -83.4586 82.565 79.7363 7.30719 -17.5002 -1.53884 3.42684 8.88536 0.161248 -4.06222 60.2332 12.0408 29.247 -80.0535 21.7041 -107.696396 -9.96522 -9.45984 5.77419 -8.40123 16.259 0.0 125.229 0.0 7.89232 -6.20367 27.6579 0.0 0.0 0.0 0.0 0.0 0.0 106.2374 -12.4529 2.74062 -9.19979 3.97359 -0.0238972 0.0 133.146 0.0 32.1601 -20.913 -7.72383 0.0 0.0 0.0 0.0 0.0 0.0 -5.1747 -6.04505 19.3651 0.0 18.1632 0.0 8.45551 6.7250404 5.62302 0.0 -14.095212 0.0 19.7465 6.43291 18.9105 0.0 7.67182 0.0 12.8377 9.597321 -22.3007 0.0 -12.7056 0.0 
  -2.9816799926757813 8.138189697265625 10.233200073242188 -84.8101 82.8824 80.1265 7.37181 -17.3687 -1.00685 2.92567 8.70307 0.638313 -4.61207 60.0801 12.5618 28.6137 -80.2889 21.035 -107.6839 -10.0231 -9.5669 5.18323 -8.7061 16.4132 0.0 124.858 0.0 7.98591 -6.20964 27.7205 0.0 0.0 0.0 0.0 0.0 0.0 106.0068 -12.2644 2.62011 -9.40386 4.02599 -0.203791 0.0 133.274 0.0 30.9325 -20.4993 -7.92834 0.0 0.0 0.0 0.0 0.0 0.0 -5.34802 -5.9251 19.8597 0.0 17.7417 0.0 8.13658 6.6834097 5.91989 0.0 -13.28228 0.0 19.5866 6.23283 19.2643 0.0 8.1937 0.0 12.5592 9.572371 -21.961 0.0 -12.40351 0.0 
  -3.003819885253906 8.117009887695312 10.23530029296875 -85.6768 83.1854 80.3 7.43646 -17.3863 -0.620953 2.36197 8.7824 0.944823 -5.29529 59.7911 13.2547 27.6408 -80.4334 20.0953 -107.6056 -10.0912 -9.72721 4.41027 -9.04109 16.6145 0.0 124.363 0.0 8.1953 -6.25152 27.7434 0.0 0.0 0.0 0.0 0.0 0.0 105.6924 -12.0976 2.61624 -9.59161 4.18865 -0.40621 0.0 133.362 0.0 29.4451 -19.8424 -8.1688 0.0 0.0 0.0 0.0 0.0 0.0 -5.58474 -5.64373 20.1685 0.0 17.1527 0.0 7.87419 6.73575 6.15127 0.0 -12.7934 0.0 19.4205 6.16552 19.3965 0.0 8.53689 0.0 12.1514 9.6412 -21.6709 0.0 -12.04822 0.0 
  -3.0242999267578123 8.095579833984376 10.2377001953125 -86.1894 83.4679 80.2751 7.62837 -17.3979 -0.213795 1.58655 8.8574 1.15823 -5.71451 59.5541 13.6429 26.728 -80.5497 19.2455 -107.5056 -10.0491 -9.82293 3.62677 -9.40081 16.874 0.0 123.716 0.0 8.55785 -6.34715 27.8438 0.0 0.0 0.0 0.0 0.0 0.0 105.4803 -11.8884 2.55714 -9.89229 4.28942 -0.608776 0.0 133.38 0.0 27.1757 -18.7088 -7.87198 0.0 0.0 0.0 0.0 0.0 0.0 -5.78886 -5.41572 20.4629 0.0 16.7708 0.0 7.63966 6.77989 6.30298 0.0 -12.53101 0.0 19.2499 6.20279 19.6568 0.0 8.71467 0.0 11.8812 9.687321 -21.5943 0.0 -12.013781 0.0 
  -3.0433999633789064 8.074580078125 10.24030029296875 -87.1321 83.7309 80.868 7.8151 -17.5153 0.123567 0.874732 9.03188 1.31688 -6.21395 59.3206 14.0731 25.6038 -80.7656 18.2174 -107.4367 -9.93211 -9.82882 2.6922 -9.6958 17.1012 0.0 122.948 0.0 8.79754 -6.73266 28.1918 0.0 0.0 0.0 0.0 0.0 0.0 105.2692 -11.7902 2.57019 -10.296 4.46291 -0.724521 0.0 133.377 0.0 25.094 -17.6878 -7.97417 0.0 0.0 0.0 0.0 0.0 0.0 -5.93623 -5.35226 20.5749 0.0 16.6351 0.0 7.40802 6.8082104 6.38128 0.0 -12.4038 0.0 19.0859 6.26615 20.0293 0.0 8.69371 0.0 11.7493 9.71666 -21.7172 0.0 -11.86514 0.0 
  -3.0606201171875 8.054710083007812 10.241700439453124 -87.7799 83.9344 81.3708 8.00496 -17.5812 0.332559 0.20883 9.15894 1.3325 -6.66658 59.0937 14.4286 24.1006 -80.8985 17.0928 -107.365 -9.9119 -9.90595 1.58403 -9.8553 17.392 0.0 121.971 0.0 8.61028 -6.8773 29.0337 0.0 0.0 0.0 0.0 0.0 0.0 105.0521 -11.5977 2.59122 -10.7611 4.58391 -0.794953 0.0 133.352 0.0 23.0083 -16.9248 -7.64104 0.0 0.0 0.0 0.0 0.0 0.0 -6.02994 -5.35573 20.4701 0.0 16.6904 0.0 7.1862 6.7991304 6.48769 0.0 -12.39582 0.0 18.9617 6.3851 20.2051 0.0 8.55865 0.0 11.6227 9.767241 -21.8439 0.0 -11.859591 0.0 
  -3.0767898559570312 8.0375 10.24219970703125 -88.4567 84.1333 81.9879 8.13094 -17.5775 0.459894 -0.307844 9.2051 1.31444 -7.27324 58.9275 14.8696 22.3452 -81.2376 15.9341 -107.3388 -9.92222 -9.85134 0.227258 -9.94553 17.529 0.0 120.839 0.0 8.01137 -7.07196 29.6708 0.0 0.0 0.0 0.0 0.0 0.0 104.8607 -11.3482 2.64091 -11.3805 4.58054 -0.796439 0.0 133.219 0.0 21.1047 -15.811 -7.51833 0.0 0.0 0.0 0.0 0.0 0.0 -6.10393 -5.42967 20.2776 0.0 16.8621 0.0 6.91842 6.77026 6.54958 0.0 -12.41926 0.0 18.853 6.45147 20.2807 0.0 8.47524 0.0 11.4951 9.778891 -21.9373 0.0 -11.86314 0.0 
  -3.09281005859375 8.022890014648437 10.240999755859375 -88.9493 84.3007 82.5255 8.2073 -17.4837 0.521072 -0.706566 9.21333 1.26185 -7.91006 58.6402 15.3167 20.1174 -81.5687 14.5676 -107.2416 -9.91891 -9.76713 -1.39636 -10.0285 17.6449 0.0 119.441 0.0 7.34764 -7.01904 30.3101 0.0 0.0 0.0 0.0 0.0 0.0 104.6431 -11.158 2.75106 -11.9583 4.5987 -0.688744 0.0 133.095 0.0 19.5265 -15.0026 -7.28878 0.0 0.0 0.0 0.0 0.0 0.0 -6.17253 -5.4612 20.088 0.0 16.9687 0.0 6.7544 6.69956 6.58712 0.0 -12.46353 0.0 18.7969 6.46834 20.2641 0.0 8.48155 0.0 11.3881 9.7328205 -22.0202 0.0 -11.87859 0.0 
  -3.107959899902344 8.008140258789062 10.236699829101562 -89.2695 84.4473 82.9617 8.43182 -17.3585 0.745865 -1.63226 9.06587 1.20602 -6.79531 58.4976 13.9896 20.6469 -81.5374 16.4889 -107.2241 -9.65097 -9.47673 -1.6545 -11.3465 18.1419 0.0 118.776 0.0 7.465 -6.05771 30.3447 0.0 0.0 0.0 0.0 0.0 0.0 104.474304 -10.6916 2.67562 -11.9612 4.1049 -0.535436 0.0 132.825 0.0 18.5962 -14.4613 -6.99291 0.0 0.0 0.0 0.0 0.0 0.0 -6.25159 -5.40969 19.9885 0.0 16.9669 0.0 6.69134 6.53045 6.55497 0.0 -12.42038 0.0 18.7712 6.49027 20.2224 0.0 8.51657 0.0 11.2836 9.57672 -22.1221 0.0 -11.86967 0.0 
  -3.1231900024414063 7.995969848632813 10.233300170898438 -89.3367 84.6227 83.1652 8.57223 -17.1563 0.906824 -2.10021 8.96283 1.1891 -7.28872 58.1515 14.2397 18.2779 -81.9872 14.7906 -107.0862 -9.45973 -9.30523 -3.3936 -11.5291 18.4723 0.0 116.818 0.0 7.8262 -5.33028 30.3885 0.0 0.0 0.0 0.0 0.0 0.0 104.1297 -10.4022 2.58027 -12.1443 3.53539 0.219684 0.0 132.728 0.0 18.499 -13.548 -6.83171 0.0 0.0 0.0 0.0 0.0 0.0 -6.36595 -5.31504 19.926 0.0 16.8892 0.0 6.63649 6.4299 6.46858 0.0 -12.3638 0.0 18.7304 6.47388 20.2279 0.0 8.63847 0.0 11.2561 9.37916 -22.2309 0.0 -11.87067 0.0 
  -3.1376800537109375 7.984569702148438 10.230399780273437 -89.1442 84.7807 83.1714 8.71319 -16.9183 1.07989 -2.53282 8.86894 1.18527 -7.55306 57.8547 14.2183 15.8719 -82.4598 13.1097 -106.971 -9.2462 -9.03755 -5.2855 -11.5926 18.7459 0.0 114.583 0.0 8.50901 -4.71051 30.2844 0.0 0.0 0.0 0.0 0.0 0.0 103.9738 -10.1968 2.51251 -12.5095 3.05099 0.830785 0.0 132.619 0.0 17.703 -13.4605 -7.04552 0.0 0.0 0.0 0.0 0.0 0.0 -6.47182 -5.21136 19.8566 0.0 16.8275 0.0 6.637 6.34684 6.39018 0.0 -12.29537 0.0 18.6957 6.50234 20.2571 0.0 8.68637 0.0 11.2499 9.2118 -22.4121 0.0 -11.8693905 0.0 
